<svg width="160" height="56" viewBox="0 0 160 56" fill="none" xmlns="http://www.w3.org/2000/svg">
<path d="M41.1769 48.1297C41.1639 49.4301 41.1509 50.7305 41.1769 52.0309C41.19 52.6132 41.001 53.0078 40.447 53.2342C39.5216 53.6095 38.6158 54.0235 37.6839 54.3729C36.9409 54.6511 36.6868 54.4699 36.6737 53.6612C36.6542 52.1085 36.6672 50.5558 36.6672 48.9966C36.6672 44.332 36.6868 39.6738 36.6542 35.0092C36.6477 34.1617 36.8953 33.5665 37.6969 33.2818C38.8178 32.8872 39.1371 32.1238 39.0524 30.9851C38.9481 29.6071 39.0133 28.2161 39.0329 26.8316C39.0394 26.1652 38.7657 25.9259 38.1009 25.9711C36.8236 26.0553 36.6933 25.9 36.6672 24.6255C36.6151 22.1411 36.8106 19.6244 36.4391 17.1854C35.4942 10.9874 29.7202 6.66569 23.4053 7.18973C23.112 7.21561 22.8318 7.44207 22.5516 7.57146C22.7666 7.77202 22.9426 8.03079 23.1902 8.16666C27.8629 10.6575 30.2415 14.4875 30.2415 19.7732C30.235 30.9592 30.2415 42.1453 30.2415 53.3313C30.2415 55.3304 29.5116 56.055 27.511 55.9968C23.8484 55.8997 20.3358 55.1363 16.9666 53.7065C15.9499 53.2795 15.8326 52.7943 16.5169 51.8821C19.1367 48.3755 22.0628 45.1407 25.3343 42.2164C26.2336 41.4077 26.6181 40.5084 26.5986 39.318C26.553 36.2385 26.579 33.1589 26.579 30.0794C26.579 29.0248 26.3509 28.8631 25.3473 29.2512C23.5943 29.9306 21.8543 30.6422 20.1142 31.341C19.0585 31.7615 18.5046 31.4315 18.5046 30.3123C18.4915 26.6116 18.4655 22.911 18.5176 19.2104C18.5502 16.9654 19.6515 15.2897 21.6262 14.1899C21.75 14.1187 21.9064 14.0864 21.9976 13.9893C22.2192 13.7629 22.6102 13.4524 22.5646 13.2712C22.4929 12.9866 22.154 12.6631 21.8543 12.566C19.0846 11.6279 16.556 12.0937 14.3859 14.054C12.8348 15.458 12.0724 17.2436 12.0724 19.3333C12.0724 24.082 12.0463 28.8243 12.0919 33.573C12.1049 34.9769 11.6162 35.9667 10.4301 36.7755C8.53367 38.0759 6.72197 39.4992 4.8842 40.8837C3.93924 41.6018 3.41789 41.5112 2.87698 40.4373C1.22169 37.1313 0.192012 33.6506 0.0356063 29.9564C-0.45968 18.5699 4.21296 9.78408 14.0014 3.89023C25.3148 -2.92231 40.2059 -0.560897 49.0624 9.20181C52.9791 13.5171 55.3838 18.5504 56.1724 24.3214C56.3157 25.35 56.1333 25.5118 55.0971 25.473C52.2231 25.363 49.3426 25.2659 46.4687 25.1883C45.3282 25.156 44.9372 24.8001 44.8981 23.6615C44.8264 21.4877 44.9046 19.3009 44.657 17.153C44.0835 12.139 39.5021 7.82377 34.4189 7.34502C34.1256 7.31914 33.8128 7.49382 33.513 7.57146C33.7151 7.77849 33.8845 8.05022 34.1256 8.17961C38.8634 10.7092 41.19 14.6298 41.1704 19.9673C41.1443 28.1579 41.1769 36.3549 41.1378 44.5455C41.1444 45.2572 41.1769 47.8386 41.1769 48.1297Z" fill="#E72C2B"/>
<path d="M44.8918 39.6221C44.8918 36.7754 44.9113 33.9223 44.8787 31.0757C44.8657 30.1247 45.2372 29.5683 46.143 29.2254C49.1539 28.0803 52.2689 27.5174 55.4818 27.4139C56.3029 27.388 56.4137 27.8538 56.4007 28.5008C56.2899 33.8512 54.778 38.7811 51.8453 43.2775C50.4442 45.4254 48.7824 47.3469 46.8208 49.0096C46.4754 49.3007 45.9019 49.5595 45.4913 49.4883C44.8396 49.3783 44.8853 48.7055 44.8853 48.162C44.8918 45.3089 44.8918 42.4687 44.8918 39.6221Z" fill="#E72C2B"/>
<path d="M65.042 50.5754L66.6386 43.6787H69.9883C70.5879 43.6787 71.0897 43.724 71.4742 43.8081C71.8652 43.8987 72.2106 44.0798 72.5169 44.3645C72.8232 44.6492 72.9731 44.992 72.9731 45.3867C72.9731 46.2083 72.3735 46.7518 71.1809 47.0235C72.178 47.3405 72.6733 47.8581 72.6733 48.5827C72.6733 49.055 72.4452 49.5079 71.9825 49.9349C71.5198 50.3618 70.627 50.5689 69.2976 50.5689H65.042V50.5754ZM66.9906 49.5596H68.9391C69.4539 49.5596 69.8319 49.5273 70.0796 49.469C70.3272 49.4043 70.5358 49.2879 70.6987 49.1132C70.8616 48.9385 70.9463 48.725 70.9463 48.4727C70.9463 48.2463 70.8616 48.0457 70.6922 47.884C70.5227 47.7222 70.3272 47.6123 70.1122 47.5605C69.8971 47.5087 69.5973 47.4829 69.2193 47.4829H67.4793L66.9906 49.5596ZM67.6879 46.5318H69.3888C70.1382 46.5318 70.64 46.4218 70.8877 46.2083C71.1353 45.9948 71.2526 45.7684 71.2526 45.5355C71.2526 44.9338 70.7182 44.6298 69.6429 44.6298H68.131L67.6879 46.5318Z" fill="black"/>
<path d="M75.2737 50.5753H73.7031L74.8957 45.4384H76.336L76.0166 46.8358C76.6292 45.8071 77.4504 45.296 78.48 45.296C78.5191 45.296 78.5843 45.296 78.669 45.3025L78.467 46.5641C78.3106 46.5576 78.1933 46.5511 78.1151 46.5511C77.7241 46.5511 77.3591 46.6223 77.0202 46.7711C76.6748 46.9199 76.4077 47.1205 76.2121 47.3728C76.0166 47.6251 75.8537 48.0327 75.7234 48.6085L75.2737 50.5753Z" fill="black"/>
<path d="M80.3373 50.5752H78.6885L79.8811 45.4383H81.5299L80.3373 50.5752ZM81.6667 44.8431H80.0179L80.3047 43.6074H81.9535L81.6667 44.8431Z" fill="black"/>
<path d="M88.0074 50.5751H86.4825L86.7301 49.5141C86.1566 50.2969 85.4007 50.6916 84.4753 50.6916C83.8366 50.6916 83.3218 50.5104 82.9308 50.1417C82.5397 49.7729 82.3442 49.2553 82.3442 48.5889C82.3442 47.6767 82.6375 46.9004 83.2305 46.2469C83.8236 45.5935 84.5795 45.27 85.4919 45.27C86.4694 45.27 87.1211 45.6129 87.434 46.2922L88.0465 43.6849H89.6171L88.0074 50.5751ZM85.1074 49.7664C85.7135 49.7664 86.1957 49.5206 86.5542 49.0289C86.9126 48.5372 87.0951 48.0002 87.0951 47.4179C87.0951 47.0556 86.9778 46.7645 86.7366 46.5445C86.4955 46.3246 86.1762 46.2081 85.7786 46.2081C85.1726 46.2081 84.7164 46.4604 84.4036 46.9715C84.0973 47.4762 83.9409 48.039 83.9409 48.6601C83.9409 49.3976 84.3319 49.7664 85.1074 49.7664Z" fill="black"/>
<path d="M90.4969 50.09C90.0929 49.8895 89.8973 49.6242 89.8973 49.2942C89.8973 49.0419 89.9886 48.822 90.1711 48.6279C90.3535 48.4403 90.7315 48.2397 91.2985 48.0391C90.7641 47.7609 90.4904 47.4051 90.4904 46.9846C90.4904 46.4605 90.7706 46.0465 91.3376 45.7553C91.898 45.4577 92.6801 45.3089 93.6706 45.3089C94.0226 45.3089 94.3158 45.3348 94.5504 45.3866C94.7785 44.8819 95.0588 44.5455 95.3846 44.3708C95.7104 44.1961 96.134 44.1056 96.6424 44.1056C96.7857 44.1056 96.9421 44.112 97.1181 44.1315L97.1051 45.0113C96.8509 44.9919 96.6749 44.9855 96.5772 44.9855C96.323 44.9855 96.0754 45.0178 95.8277 45.076C95.5801 45.1343 95.3911 45.3025 95.2543 45.5742C95.9841 45.8395 96.3491 46.247 96.3491 46.7969C96.3491 47.2757 96.0884 47.6768 95.5671 47.9874C95.0457 48.2979 94.2963 48.4597 93.3252 48.4597C92.9147 48.4597 92.452 48.4079 91.9371 48.3109C91.5135 48.4661 91.2985 48.6732 91.2985 48.9384C91.2985 49.0808 91.3702 49.1972 91.52 49.2813C91.6699 49.3654 91.9762 49.4042 92.4389 49.4042H93.2861C94.1138 49.4042 94.7199 49.456 95.1044 49.553C95.4889 49.6501 95.7886 49.8118 96.0102 50.0253C96.2253 50.2453 96.3361 50.4782 96.3361 50.724C96.3361 51.151 96.0493 51.5327 95.4823 51.8821C94.9154 52.2315 93.9183 52.4061 92.5041 52.4061C90.4057 52.4061 89.3564 52.005 89.3564 51.1963C89.3564 50.9181 89.4542 50.7046 89.6497 50.5429C89.8452 50.3811 90.132 50.2323 90.4969 50.09ZM91.2072 50.3488C90.901 50.5299 90.7445 50.7111 90.7445 50.8922C90.7445 51.1187 90.914 51.3063 91.2659 51.4486C91.6113 51.5974 92.1326 51.6686 92.8234 51.6686C94.1659 51.6686 94.8372 51.4098 94.8372 50.8922C94.8372 50.6917 94.7329 50.5623 94.5244 50.517C94.3158 50.4652 93.7814 50.4458 92.9212 50.4458C92.0154 50.4394 91.4484 50.407 91.2072 50.3488ZM93.3252 47.7803C93.7749 47.7803 94.1333 47.6898 94.381 47.5151C94.6351 47.3404 94.759 47.101 94.759 46.8034C94.759 46.2923 94.3745 46.04 93.6055 46.04C93.1493 46.04 92.7909 46.1306 92.5237 46.3053C92.263 46.4799 92.1326 46.7128 92.1326 47.004C92.1326 47.5216 92.5302 47.7803 93.3252 47.7803Z" fill="black"/>
<path d="M103.44 49.1259C102.788 50.174 101.752 50.7045 100.331 50.7045C99.3991 50.7045 98.6626 50.4975 98.1282 50.0834C97.5939 49.6694 97.3267 49.1195 97.3267 48.4337C97.3267 47.5603 97.6656 46.8163 98.3368 46.2146C99.0146 45.6129 99.8813 45.3088 100.937 45.3088C101.889 45.3088 102.612 45.5288 103.101 45.9623C103.589 46.3957 103.831 46.991 103.831 47.7414C103.831 47.8644 103.824 48.0002 103.811 48.1425H98.9168C98.8842 48.2849 98.8712 48.4143 98.8712 48.5243C98.8712 48.9124 99.0015 49.223 99.2622 49.4559C99.5229 49.6888 99.8878 49.8117 100.364 49.8117C101.1 49.8117 101.66 49.4947 102.045 48.8542L103.44 49.1259ZM102.345 47.405C102.345 46.5381 101.875 46.1046 100.944 46.1046C99.9791 46.1046 99.3534 46.5381 99.0797 47.405H102.345Z" fill="black"/>
<path d="M111.605 50.5817C111.136 50.6335 110.797 50.6593 110.602 50.6593C109.943 50.6593 109.461 50.5494 109.155 50.3359C108.848 50.1224 108.699 49.8636 108.699 49.553C108.699 49.3978 108.751 49.0872 108.862 48.6279L109.402 46.357H108.347L108.562 45.4319H109.637L110.061 44.0474L111.488 43.9762L111.149 45.4319H112.68L112.472 46.357H110.927L110.393 48.6473C110.328 48.9319 110.295 49.1131 110.295 49.1907C110.295 49.5207 110.634 49.6824 111.305 49.6824C111.442 49.6824 111.618 49.6695 111.814 49.6436L111.605 50.5817Z" fill="black"/>
<path d="M115.841 50.7047C115.314 50.7047 114.805 50.6206 114.31 50.4523C113.815 50.2841 113.443 50.0189 113.183 49.6501C112.922 49.2878 112.792 48.8479 112.792 48.3432C112.792 47.5216 113.124 46.8164 113.795 46.2212C114.466 45.626 115.34 45.3219 116.415 45.3219C117.301 45.3219 118.012 45.5354 118.546 45.9689C119.08 46.3959 119.348 46.9717 119.348 47.6963C119.348 48.4403 119.028 49.1261 118.396 49.7601C117.757 50.3876 116.904 50.7047 115.841 50.7047ZM115.854 49.7795C116.487 49.7795 116.956 49.5401 117.256 49.0678C117.555 48.5955 117.705 48.0974 117.705 47.5798C117.705 46.6935 117.23 46.2471 116.278 46.2471C115.607 46.2471 115.131 46.4994 114.844 47.0105C114.558 47.5216 114.408 48.0262 114.408 48.5309C114.408 48.9579 114.545 49.2749 114.825 49.4754C115.105 49.6825 115.45 49.7795 115.854 49.7795Z" fill="black"/>
<path d="M131.436 48.686C130.622 50.064 129.357 50.7563 127.643 50.7563C126.607 50.7563 125.76 50.4845 125.108 49.9476C124.457 49.4106 124.131 48.673 124.131 47.7414C124.131 46.5769 124.548 45.5805 125.382 44.746C126.216 43.9114 127.292 43.4973 128.608 43.4973C129.631 43.4973 130.439 43.7108 131.039 44.1378C131.638 44.5648 131.977 45.16 132.062 45.917L130.504 46.1175C130.368 45.063 129.722 44.5324 128.569 44.5324C127.637 44.5324 126.972 44.9271 126.562 45.7229C126.151 46.5186 125.949 47.2756 125.949 47.9937C125.949 48.5501 126.119 48.9706 126.464 49.2553C126.809 49.54 127.246 49.6823 127.78 49.6823C128.269 49.6823 128.712 49.5464 129.116 49.2682C129.514 48.9965 129.82 48.6601 130.029 48.2654L131.436 48.686Z" fill="black"/>
<path d="M138.07 50.5754H136.5L137.203 47.5411C137.288 47.1853 137.327 46.9718 137.327 46.8877C137.327 46.4348 137.021 46.2083 136.415 46.2083C135.998 46.2083 135.6 46.3313 135.229 46.5901C134.851 46.8424 134.584 47.3276 134.421 48.0457L133.834 50.5754H132.264L133.86 43.6787H135.431L134.818 46.3313C135.405 45.6325 136.135 45.2832 136.995 45.2832C137.529 45.2832 137.986 45.3932 138.364 45.6196C138.735 45.8396 138.924 46.1954 138.924 46.6677C138.924 46.8035 138.872 47.0947 138.768 47.5346L138.07 50.5754Z" fill="black"/>
<path d="M141.629 50.5752H139.98L141.173 45.4383H142.821L141.629 50.5752ZM142.958 44.8431H141.309L141.596 43.6074H143.245L142.958 44.8431Z" fill="black"/>
<path d="M149.332 50.5751H147.761L148.491 47.4891C148.543 47.2562 148.569 47.0557 148.569 46.8939C148.569 46.7063 148.497 46.5445 148.348 46.4151C148.198 46.2858 147.976 46.2211 147.676 46.2211C147.201 46.2211 146.777 46.3957 146.419 46.7451C146.054 47.0945 145.799 47.5991 145.65 48.2655L145.109 50.5816H143.538L144.731 45.4447H146.19L145.91 46.6416C146.353 46.0399 146.764 45.6711 147.142 45.5223C147.52 45.3735 147.891 45.3024 148.25 45.3024C148.771 45.3024 149.221 45.4318 149.599 45.6841C149.977 45.9364 150.172 46.2922 150.172 46.7451C150.172 46.9263 150.127 47.2109 150.035 47.5991L149.332 50.5751Z" fill="black"/>
<path d="M157.159 50.5753H155.608C155.601 50.4847 155.595 50.4135 155.595 50.3553C155.595 50.1094 155.634 49.8118 155.718 49.4689C155.484 49.8506 155.151 50.1547 154.708 50.3747C154.272 50.5947 153.783 50.7046 153.255 50.7046C152.623 50.7046 152.102 50.5623 151.704 50.2776C151.307 49.993 151.104 49.6436 151.104 49.2231C151.104 48.6473 151.463 48.1879 152.173 47.8515C152.884 47.5086 153.998 47.3404 155.516 47.3404C155.712 47.3404 155.94 47.3469 156.201 47.3598C156.233 47.2046 156.246 47.0816 156.246 46.9911C156.246 46.7129 156.116 46.5058 155.849 46.3635C155.582 46.2212 155.256 46.15 154.865 46.15C154.115 46.15 153.561 46.3894 153.216 46.8617L151.815 46.5447C152.401 45.7101 153.444 45.2896 154.93 45.2896C155.816 45.2896 156.52 45.4319 157.028 45.723C157.543 46.0142 157.797 46.3959 157.797 46.8811C157.797 47.0881 157.687 47.6316 157.458 48.505C157.217 49.4301 157.1 50.0189 157.1 50.2647C157.133 50.3682 157.139 50.4653 157.159 50.5753ZM156.077 47.955C154.858 48.0003 154.011 48.1168 153.535 48.3044C153.06 48.492 152.818 48.7638 152.818 49.1196C152.818 49.3266 152.916 49.4948 153.105 49.6242C153.294 49.7536 153.555 49.8183 153.887 49.8183C154.363 49.8183 154.806 49.6695 155.21 49.3654C155.621 49.0549 155.907 48.5891 156.077 47.955Z" fill="black"/>
<path d="M76.5313 19.9415L66.2867 21.6107C66.2411 21.6107 66.2085 21.6172 66.189 21.6236C66.1694 21.6366 66.1368 21.6366 66.0912 21.6366C65.8501 21.6366 65.622 21.5525 65.4004 21.3907C65.1593 21.2031 65.042 20.9443 65.042 20.6144V10.8064C65.042 10.5411 65.1332 10.3082 65.3222 10.1077C65.5047 9.91356 65.7523 9.80358 66.0586 9.78417L78.3365 9.26013L78.4343 11.3045L67.173 11.7704V19.411L76.036 17.9553L75.1823 14.3065L77.2808 13.873L78.9882 21.022L76.8898 21.4554L76.5313 19.9415ZM66.2541 37.0537C65.9478 37.0537 65.6872 36.9567 65.4851 36.7626C65.2766 36.5685 65.1723 36.3227 65.1723 36.038V23.8751C65.1723 23.5839 65.2766 23.3446 65.4851 23.1505C65.6937 22.9564 65.9478 22.8593 66.2541 22.8593H92.7194C93.0257 22.8593 93.2798 22.9564 93.4753 23.1505C93.6708 23.3446 93.7686 23.5904 93.7686 23.8751V36.038C93.7686 36.3292 93.6708 36.5685 93.4753 36.7626C93.2798 36.9567 93.0257 37.0537 92.7194 37.0537H66.2541ZM67.336 28.9473H78.4017V24.8649H67.336V28.9473ZM67.336 35.0093H78.4017V30.9852H67.336V35.0093ZM78.9296 20.5561L82.9049 11.4275H79.8159V9.38306H92.9149C93.2212 9.38306 93.4753 9.48011 93.6839 9.6742C93.8924 9.86829 93.9967 10.1141 93.9967 10.3988V20.3621C93.9967 20.6532 93.8924 20.8926 93.6839 21.0867C93.4753 21.2807 93.2212 21.3778 92.9149 21.3778H84.8404V19.3334H91.8331V11.4145H85.264L80.9302 21.3196L78.9296 20.5561ZM91.6376 24.8585H80.5718V28.9408H91.6376V24.8585ZM91.6376 35.0093V30.9852H80.5718V35.0093H91.6376Z" fill="black"/>
<path d="M113.404 36.9889H111.273V30.0599H97.646V28.0479H111.273V24.6448H113.404V28.0479H127.031V30.0599H113.404V36.9889ZM99.3534 24.4249V13.3165C99.3534 13.0059 99.4707 12.7601 99.7118 12.5725L103.915 8.92358L105.395 10.4116L101.517 13.7564V24.4313H99.3534V24.4249ZM103.622 16.9654L111.468 14.8951V9.3894H113.632V14.3387L126.275 10.9939L126.868 12.9412L113.632 16.4348V21.3518H126.796V23.3962H112.544C112.237 23.3962 111.977 23.2991 111.775 23.105C111.566 22.911 111.462 22.6651 111.462 22.3805V16.9977L104.202 18.9192L103.622 16.9654Z" fill="black"/>
<path d="M140.788 22.6651L137.934 21.4294V36.8401H135.803V14.1899H134.095L132.746 36.0055L130.576 35.8826L131.925 14.1899H130.446V12.1455H135.796V9.20825H137.927V12.1455H141.342V14.1899H137.927V19.2362L141.668 20.8148L140.788 22.6651ZM141.876 11.9579L141.811 9.91344L159.114 9.3247L159.179 11.3691L151.561 11.615V14.5845H159.837V16.6289H151.561V17.9617L160 22.911L158.853 24.6125L150.479 19.7214L142.105 24.6125L140.958 22.911L149.397 17.9617V16.6289H141.186V14.5845H149.397V11.7055L141.876 11.9579ZM144.405 36.9307L142.274 36.7172L143.688 24.1855L145.858 24.3731L144.405 36.9307ZM157.7 36.8336H155.569V24.2696H157.7V36.8336Z" fill="black"/>
<path d="M137.569 3.60547H136.813V36.8336H137.569V3.60547Z" fill="white"/>
<path d="M128.083 29.3004V28.5887L96.7562 28.5887V29.3004L128.083 29.3004Z" fill="white"/>
<path d="M65.8612 38.0269H66.6172V8.49938H65.8612V38.0269Z" fill="white"/>
</svg>
