<?xml version="1.0" standalone="no"?><!DOCTYPE svg PUBLIC "-//W3C//DTD SVG 1.1//EN" "http://www.w3.org/Graphics/SVG/1.1/DTD/svg11.dtd"><svg t="1682498658441" class="icon" viewBox="0 0 1024 1024" version="1.1" xmlns="http://www.w3.org/2000/svg" p-id="2628" xmlns:xlink="http://www.w3.org/1999/xlink" width="200" height="200"><path d="M675.994 463.72c-55.56-66.232-34.5-155.088-34.312-155.916l8.124-32.36-32.748 6.188c-57.498 10.828-103.372 35.266-136.372 72.624-26.092 29.546-44.31 67.436-54.326 112.918-1.968-1.11-3.578-2.204-4.454-3.282l-23.202-28.92-13.344 34.608c-14.344 37.25-19.984 73.264-16.766 107.044 2.954 31.122 13.266 59.746 30.672 85.122 36.138 52.624 101.746 86.684 167.228 86.808H588.37v-1.438c23.248-3.062 46.436-11 66.934-23.124 28.562-16.872 50.562-40.496 63.562-68.372 15.754-33.812 31.126-103.682-42.872-191.9z" fill="#FC6E51" p-id="2629"></path><path d="M277.334 301.6c-11.78 0-21.326 9.546-21.326 21.328v170.666H42.686v-170.666c0-11.782-9.562-21.328-21.344-21.328S0.016 311.146 0.016 322.928v384.004c0 11.75 9.544 21.308 21.326 21.308s21.344-9.558 21.344-21.308v-170.668h213.322v170.668c0 11.75 9.546 21.308 21.326 21.308 11.782 0 21.344-9.558 21.344-21.308V322.928c0-11.78-9.562-21.328-21.344-21.328zM1002.674 301.6H746.68c-11.81 0-21.374 9.546-21.374 21.328 0 11.78 9.562 21.342 21.374 21.342h106.624v362.664c0 11.75 9.562 21.308 21.376 21.308 11.748 0 21.31-9.558 21.31-21.308V344.27h106.686c11.748 0 21.31-9.562 21.31-21.342-0.002-11.78-9.564-21.328-21.312-21.328z" fill="#FFCE54" p-id="2630"></path></svg>